<svg width="25" height="25" viewBox="0 0 25 25" fill="none" xmlns="http://www.w3.org/2000/svg">
<path d="M20.6463 0.968994C20.1124 0.970287 19.584 1.07728 19.0916 1.28381C18.5993 1.49034 18.1527 1.79231 17.7777 2.17231L2.16811 17.7809L2.10691 18.0899L1.02698 23.5191L0.718994 24.9682L2.16909 24.6602L7.59833 23.5803L7.90632 23.5181L23.5159 7.90954C23.8969 7.53514 24.1995 7.08861 24.406 6.59601C24.6126 6.1034 24.719 5.57459 24.719 5.04043C24.719 4.50627 24.6126 3.97746 24.406 3.48485C24.1995 2.99225 23.8969 2.54572 23.5159 2.17132C23.1406 1.79139 22.6938 1.48953 22.2013 1.28317C21.7088 1.07681 21.1803 0.970028 20.6463 0.968994V0.968994ZM20.6463 2.85047C21.1438 2.85047 21.6453 3.07751 22.127 3.56022C23.0875 4.51972 23.0875 5.56114 22.127 6.52162L21.4182 7.19979L18.4864 4.26898L19.1656 3.56022C19.6483 3.07751 20.1488 2.85047 20.6463 2.85047V2.85047ZM17.0995 5.65788L20.0293 8.58868L8.0919 20.5251C7.44745 19.2642 6.42145 18.2389 5.16011 17.5953L17.0995 5.65788ZM3.89658 19.2004C4.4808 19.4354 5.0115 19.7861 5.45679 20.2314C5.90207 20.6767 6.25277 21.2074 6.48781 21.7916L3.24803 22.4392L3.89658 19.2004Z" fill="black"/>
</svg>
